HIERARCHY
ROOT Hips
{
  OFFSET -312.851 91.0161 1185.42
  CHANNELS 6 Xposition Yposition Zposition Zrotation Xrotation Yrotation
  JOINT Spine
  {
    OFFSET 0 8 0
    CHANNELS 6 Xposition Yposition Zposition Zrotation Xrotation Yrotation
    JOINT Spine1
    {
      OFFSET 0 8 0
      CHANNELS 6 Xposition Yposition Zposition Zrotation Xrotation Yrotation
      JOINT Spine2
      {
        OFFSET 0 8 0
        CHANNELS 6 Xposition Yposition Zposition Zrotation Xrotation Yrotation
        JOINT Spine3
        {
          OFFSET 0 8 0
          CHANNELS 6 Xposition Yposition Zposition Zrotation Xrotation Yrotation
          JOINT Neck
          {
            OFFSET 0 17 0
            CHANNELS 6 Xposition Yposition Zposition Zrotation Xrotation Yrotation
            JOINT Head
            {
              OFFSET 0 10.8 0
              CHANNELS 6 Xposition Yposition Zposition Zrotation Xrotation Yrotation
              End Site
              {
                OFFSET 0 20.25 0
              }
            }
          }
          JOINT LeftShoulder
          {
            OFFSET 5 17 0
            CHANNELS 6 Xposition Yposition Zposition Zrotation Xrotation Yrotation
            JOINT LeftShoulder2
            {
              OFFSET 6.45 0 0
              CHANNELS 6 Xposition Yposition Zposition Zrotation Xrotation Yrotation
              JOINT LeftArm
              {
                OFFSET 6.45 0 0
                CHANNELS 6 Xposition Yposition Zposition Zrotation Xrotation Yrotation
                JOINT LeftForeArm
                {
                  OFFSET 0 -32.4 -2
                  CHANNELS 6 Xposition Yposition Zposition Zrotation Xrotation Yrotation
                  JOINT LeftHand
                  {
                    OFFSET 0 -25.65 2
                    CHANNELS 6 Xposition Yposition Zposition Zrotation Xrotation Yrotation
                    JOINT LeftHandThumb1
                    {
                      OFFSET -0.5 -1.5 2.65
                      CHANNELS 6 Xposition Yposition Zposition Zrotation Xrotation Yrotation
                      JOINT LeftHandThumb2
                      {
                        OFFSET 0 -3.8 3.7
                        CHANNELS 6 Xposition Yposition Zposition Zrotation Xrotation Yrotation
                        JOINT LeftHandThumb3
                        {
                          OFFSET 0 -3 2.7
                          CHANNELS 6 Xposition Yposition Zposition Zrotation Xrotation Yrotation
                          End Site
                          {
                            OFFSET 0 -2.3 1.8
                          }
                        }
                      }
                    }
                    JOINT LeftHandIndex
                    {
                      OFFSET 0 -1.9 1.6
                      CHANNELS 6 Xposition Yposition Zposition Zrotation Xrotation Yrotation
                      JOINT LeftHandIndex1
                      {
                        OFFSET 0 -8.3 1.9
                        CHANNELS 6 Xposition Yposition Zposition Zrotation Xrotation Yrotation
                        JOINT LeftHandIndex2
                        {
                          OFFSET 0 -4.5 0
                          CHANNELS 6 Xposition Yposition Zposition Zrotation Xrotation Yrotation
                          JOINT LeftHandIndex3
                          {
                            OFFSET 0 -3.4 0
                            CHANNELS 6 Xposition Yposition Zposition Zrotation Xrotation Yrotation
                            End Site
                            {
                              OFFSET 0 -2.6 0
                            }
                          }
                        }
                      }
                    }
                    JOINT LeftHandMiddle
                    {
                      OFFSET -0.25 -2.2 0.4
                      CHANNELS 6 Xposition Yposition Zposition Zrotation Xrotation Yrotation
                      JOINT LeftHandMiddle1
                      {
                        OFFSET 0 -8.3 1
                        CHANNELS 6 Xposition Yposition Zposition Zrotation Xrotation Yrotation
                        JOINT LeftHandMiddle2
                        {
                          OFFSET 0 -4.65 0
                          CHANNELS 6 Xposition Yposition Zposition Zrotation Xrotation Yrotation
                          JOINT LeftHandMiddle3
                          {
                            OFFSET 0 -3.3 0
                            CHANNELS 6 Xposition Yposition Zposition Zrotation Xrotation Yrotation
                            End Site
                            {
                              OFFSET 0 -2.7 0
                            }
                          }
                        }
                      }
                    }
                    JOINT LeftHandRing
                    {
                      OFFSET -0.5 -2.15 -0.8
                      CHANNELS 6 Xposition Yposition Zposition Zrotation Xrotation Yrotation
                      JOINT LeftHandRing1
                      {
                        OFFSET 0 -7.75 -0.2
                        CHANNELS 6 Xposition Yposition Zposition Zrotation Xrotation Yrotation
                        JOINT LeftHandRing2
                        {
                          OFFSET 0 -3.8 0
                          CHANNELS 6 Xposition Yposition Zposition Zrotation Xrotation Yrotation
                          JOINT LeftHandRing3
                          {
                            OFFSET 0 -3.4 0
                            CHANNELS 6 Xposition Yposition Zposition Zrotation Xrotation Yrotation
                            End Site
                            {
                              OFFSET 0 -2.6 0
                            }
                          }
                        }
                      }
                    }
                    JOINT LeftHandPinky
                    {
                      OFFSET -0.75 -1.75 -1.85
                      CHANNELS 6 Xposition Yposition Zposition Zrotation Xrotation Yrotation
                      JOINT LeftHandPinky1
                      {
                        OFFSET 0 -7.15 -1
                        CHANNELS 6 Xposition Yposition Zposition Zrotation Xrotation Yrotation
                        JOINT LeftHandPinky2
                        {
                          OFFSET 0 -3 0
                          CHANNELS 6 Xposition Yposition Zposition Zrotation Xrotation Yrotation
                          JOINT LeftHandPinky3
                          {
                            OFFSET 0 -2.35 0
                            CHANNELS 6 Xposition Yposition Zposition Zrotation Xrotation Yrotation
                            End Site
                            {
                              OFFSET 0 -2.1 0
                            }
                          }
                        }
                      }
                    }
                  }
                }
              }
            }
          }
          JOINT RightShoulder
          {
            OFFSET -5 17 0
            CHANNELS 6 Xposition Yposition Zposition Zrotation Xrotation Yrotation
            JOINT RightShoulder2
            {
              OFFSET -6.45 0 0
              CHANNELS 6 Xposition Yposition Zposition Zrotation Xrotation Yrotation
              JOINT RightArm
              {
                OFFSET -6.45 0 0
                CHANNELS 6 Xposition Yposition Zposition Zrotation Xrotation Yrotation
                JOINT RightForeArm
                {
                  OFFSET 0 -32.4 -2
                  CHANNELS 6 Xposition Yposition Zposition Zrotation Xrotation Yrotation
                  JOINT RightHand
                  {
                    OFFSET 0 -25.65 2
                    CHANNELS 6 Xposition Yposition Zposition Zrotation Xrotation Yrotation
                    JOINT RightHandThumb1
                    {
                      OFFSET 0.5 -1.5 2.65
                      CHANNELS 6 Xposition Yposition Zposition Zrotation Xrotation Yrotation
                      JOINT RightHandThumb2
                      {
                        OFFSET 0 -3.8 3.7
                        CHANNELS 6 Xposition Yposition Zposition Zrotation Xrotation Yrotation
                        JOINT RightHandThumb3
                        {
                          OFFSET 0 -3 2.7
                          CHANNELS 6 Xposition Yposition Zposition Zrotation Xrotation Yrotation
                          End Site
                          {
                            OFFSET 0 -2.3 1.8
                          }
                        }
                      }
                    }
                    JOINT RightHandIndex
                    {
                      OFFSET 0 -1.9 1.6
                      CHANNELS 6 Xposition Yposition Zposition Zrotation Xrotation Yrotation
                      JOINT RightHandIndex1
                      {
                        OFFSET 0 -8.3 1.9
                        CHANNELS 6 Xposition Yposition Zposition Zrotation Xrotation Yrotation
                        JOINT RightHandIndex2
                        {
                          OFFSET 0 -4.5 0
                          CHANNELS 6 Xposition Yposition Zposition Zrotation Xrotation Yrotation
                          JOINT RightHandIndex3
                          {
                            OFFSET 0 -3.4 0
                            CHANNELS 6 Xposition Yposition Zposition Zrotation Xrotation Yrotation
                            End Site
                            {
                              OFFSET 0 -2.6 0
                            }
                          }
                        }
                      }
                    }
                    JOINT RightHandMiddle
                    {
                      OFFSET 0.25 -2.2 0.4
                      CHANNELS 6 Xposition Yposition Zposition Zrotation Xrotation Yrotation
                      JOINT RightHandMiddle1
                      {
                        OFFSET 0 -8.3 1
                        CHANNELS 6 Xposition Yposition Zposition Zrotation Xrotation Yrotation
                        JOINT RightHandMiddle2
                        {
                          OFFSET 0 -4.65 0
                          CHANNELS 6 Xposition Yposition Zposition Zrotation Xrotation Yrotation
                          JOINT RightHandMiddle3
                          {
                            OFFSET 0 -3.3 0
                            CHANNELS 6 Xposition Yposition Zposition Zrotation Xrotation Yrotation
                            End Site
                            {
                              OFFSET 0 -2.7 0
                            }
                          }
                        }
                      }
                    }
                    JOINT RightHandRing
                    {
                      OFFSET 0.5 -2.15 -0.8
                      CHANNELS 6 Xposition Yposition Zposition Zrotation Xrotation Yrotation
                      JOINT RightHandRing1
                      {
                        OFFSET 0 -7.75 -0.2
                        CHANNELS 6 Xposition Yposition Zposition Zrotation Xrotation Yrotation
                        JOINT RightHandRing2
                        {
                          OFFSET 0 -3.8 0
                          CHANNELS 6 Xposition Yposition Zposition Zrotation Xrotation Yrotation
                          JOINT RightHandRing3
                          {
                            OFFSET 0 -3.4 0
                            CHANNELS 6 Xposition Yposition Zposition Zrotation Xrotation Yrotation
                            End Site
                            {
                              OFFSET 0 -2.6 0
                            }
                          }
                        }
                      }
                    }
                    JOINT RightHandPinky
                    {
                      OFFSET 0.75 -1.75 -1.85
                      CHANNELS 6 Xposition Yposition Zposition Zrotation Xrotation Yrotation
                      JOINT RightHandPinky1
                      {
                        OFFSET 0 -7.15 -1
                        CHANNELS 6 Xposition Yposition Zposition Zrotation Xrotation Yrotation
                        JOINT RightHandPinky2
                        {
                          OFFSET 0 -3 0
                          CHANNELS 6 Xposition Yposition Zposition Zrotation Xrotation Yrotation
                          JOINT RightHandPinky3
                          {
                            OFFSET 0 -2.35 0
                            CHANNELS 6 Xposition Yposition Zposition Zrotation Xrotation Yrotation
                            End Site
                            {
                              OFFSET 0 -2.1 0
                            }
                          }
                        }
                      }
                    }
                  }
                }
              }
            }
          }
        }
      }
    }
  }
  JOINT LeftUpLeg
  {
    OFFSET 8 0 0
    CHANNELS 6 Xposition Yposition Zposition Zrotation Xrotation Yrotation
    JOINT LeftLeg
    {
      OFFSET 0 -45 -1
      CHANNELS 6 Xposition Yposition Zposition Zrotation Xrotation Yrotation
      JOINT LeftFoot
      {
        OFFSET 0 -41 -2
        CHANNELS 6 Xposition Yposition Zposition Zrotation Xrotation Yrotation
        JOINT LeftToeBase
        {
          OFFSET 0 -7.5 12.5
          CHANNELS 6 Xposition Yposition Zposition Zrotation Xrotation Yrotation
          JOINT LeftFootToe
          {
            OFFSET 0 0 4
            CHANNELS 6 Xposition Yposition Zposition Zrotation Xrotation Yrotation
            End Site
            {
              OFFSET 0 0 0
            }
          }
        }
      }
    }
  }
  JOINT RightUpLeg
  {
    OFFSET -8 0 0
    CHANNELS 6 Xposition Yposition Zposition Zrotation Xrotation Yrotation
    JOINT RightLeg
    {
      OFFSET 0 -45 -1
      CHANNELS 6 Xposition Yposition Zposition Zrotation Xrotation Yrotation
      JOINT RightFoot
      {
        OFFSET 0 -41 -2
        CHANNELS 6 Xposition Yposition Zposition Zrotation Xrotation Yrotation
        JOINT RightToeBase
        {
          OFFSET 0 -7.5 12.5
          CHANNELS 6 Xposition Yposition Zposition Zrotation Xrotation Yrotation
          JOINT RightFootToe
          {
            OFFSET 0 0 4
            CHANNELS 6 Xposition Yposition Zposition Zrotation Xrotation Yrotation
            End Site
            {
              OFFSET 0 0 0
            }
          }
        }
      }
    }
  }
}
MOTION
Frames:	3
Frame Time:	0.0111111
-308.427 90.8359 1197.07 -10.2372 -12.9724 116.449 0 8 2.27374e-13 -3.78439 22.2619 14.6575 -1.13687e-13 8 0 -4.3181 8.55553 4.90823 0 8 0 -2.06029 4.33387 2.35922 1.13687e-13 8 1.13687e-13 -2.05509 4.31549 2.34876 1.13687e-13 17 0 -1.58304 2.64886 2.20753 0 10.8 -1.13687e-13 -3.86324 6.08467 5.28046 5 17 0 -15.5823 -8.9107 16.5983 6.45 1.13687e-13 -1.13687e-13 -0.303052 -1.72108 1.76476 6.45 0 0 57.6833 23.6592 -13.8127 1.13687e-13 -32.4 -2 151.981 -46.3307 73.1926 0 -25.65 2 -45.5357 -7.91689 44.1309 -0.5 -1.5 2.65 1.0229 -11.3318 113.358 0 -3.8 3.7 -0.0641085 30.5719 0.0109543 0 -3 2.7 0.00860504 3.05116 0.182636 0 -1.9 1.6 -6.36111e-15 -1.09332e-15 -1.98785e-16 2.27374e-13 -8.3 1.9 -40.4754 -31.1285 -10.6052 0 -4.5 0 -3.15525e-31 -9.0944e-15 -1.98785e-15 0 -3.4 -5.68434e-14 6.36111e-15 2.98177e-16 5.96354e-16 -0.25 -2.2 0.4 -6.36111e-15 -1.09332e-15 -1.98785e-16 0 -8.3 1 -27.2972 -29.3048 -6.08426 2.27374e-13 -4.65 1.7053e-13 -12.2804 8.64713e-15 -8.40859e-14 0 -3.3 1.13687e-13 -4.40856 -0.237103 -0.0963511 -0.5 -2.15 -0.8 -6.36111e-15 -1.09332e-15 -1.98785e-16 0 -7.75 -0.2 -46.9757 -18.3976 -14.4816 0 -3.8 0 -1.77348 -0.0054744 0.00844246 0 -3.4 5.68434e-14 -83.429 -0.0249634 0.0410767 -0.75 -1.75 -1.85 -6.36111e-15 -1.09332e-15 -1.98785e-16 2.27374e-13 -7.15 -1 -0.103849 -2.50328 0.0122402 0 -3 1.13687e-13 -18.1028 0.0773885 -0.0192274 0 -2.35 1.7053e-13 10.9232 -0.00549316 -0.00778198 -5 17 0 -0.648349 -1.86069 8.83159 -6.45 0 0 -2.90787 0.54411 -2.48546 -6.45 0 0 -49.3888 -26.4088 12.325 -1.13687e-13 -32.4 -2 100.677 -78.2559 95.8159 1.13687e-13 -25.65 2 -14.327 15.5061 -0.879463 0.5 -1.5 2.65 0.586526 -4.54578 5.56059 -2.27374e-13 -3.8 3.7 0.490259 9.96654 -0.199618 0 -3 2.7 0.0465453 44.5676 -0.0331564 1.13687e-13 -1.9 1.6 1.76556e-31 3.18055e-15 -3.18055e-15 0 -8.3 1.9 1.65629 10.723 -0.23407 -1.13687e-13 -4.5 0 27.0744 -0.0487167 -0.00948032 0 -3.4 0 20.0563 -0.0311612 0.00154633 0.25 -2.2 0.4 1.76556e-31 3.18055e-15 -3.18055e-15 0 -8.3 1 15.9305 12.685 -2.64297 0 -4.65 -1.13687e-13 86.2421 -0.00278548 0.00122828 1.7053e-13 -3.3 -1.13687e-13 78.8234 0.0131109 0.00729614 0.5 -2.15 -0.8 1.76556e-31 3.18055e-15 -3.18055e-15 -2.27374e-13 -7.75 -0.2 40.6898 11.6124 -6.8146 -2.27374e-13 -3.8 1.13687e-13 48.8771 0.000539831 0.00205216 2.27374e-13 -3.4 1.13687e-13 33.7435 0.00774627 -0.00420032 0.75 -1.75 -1.85 1.76556e-31 3.18055e-15 -3.18055e-15 0 -7.15 -1 54.1111 3.68755 -5.4626 -2.27374e-13 -3 2.27374e-13 39.1073 -0.000114686 -0.00600299 0 -2.35 1.13687e-13 27.547 0.00367915 -0.00165494 8 0 0 9.66195 -31.6964 -35.3319 4.54747e-13 -45 -1 0.263715 22.4981 -1.79521 4.54747e-13 -41 -2 -11.8129 -10.2808 20.4851 0 -7.5 12.5 3.51299e-19 -0.00316422 6.36111e-15 0 1.77983e-15 4 13.1779 -1.75912 79.6025 -8 -2.84217e-14 0 -5.85024 -15.4237 -53.5295 -4.54747e-13 -45 -1 -0.0922866 16.6897 0.83191 4.54747e-13 -41 -2 7.29681 -6.58876 7.38933 0 -7.5 12.5 -3.10601e-18 -2.36445e-16 6.36111e-15 -2.27374e-13 -8.32667e-17 4 -5.00849 8.2799 53.4324 
-308.448 90.8307 1197.04 -10.2638 -12.9647 116.406 -1.13687e-13 8 1.13687e-13 -3.75748 22.2706 14.6315 0 8 1.13687e-13 -4.3174 8.55867 4.90441 -1.13687e-13 8 0 -2.0606 4.33501 2.35928 0 8 -1.13687e-13 -2.05535 4.31662 2.34882 0 17 0 -1.6517 2.63962 2.23618 -1.13687e-13 10.8 -1.13687e-13 -4.02528 6.05749 5.3519 5 17 0 -15.5966 -8.87987 16.6883 6.45 0 0 -0.289593 -1.72028 1.78345 6.45 0 -2.27374e-13 57.6833 23.6592 -13.8127 0 -32.4 -2 151.981 -46.3307 73.1926 0 -25.65 2 -45.5357 -7.91689 44.1309 -0.5 -1.5 2.65 1.7005 -13.2038 113.106 2.27374e-13 -3.8 3.7 -0.0673924 30.2765 -0.00735505 0 -3 2.7 0.00969723 0.91852 0.086096 2.27374e-13 -1.9 1.6 -3.18055e-15 -6.4605e-15 -0 0 -8.3 1.9 -39.3958 -31.183 -10.3286 0 -4.5 -5.68434e-14 3.18055e-15 -6.55989e-15 -1.98785e-15 0 -3.4 5.68434e-14 7.95139e-15 -3.57812e-15 -1.19271e-15 -0.25 -2.2 0.4 -3.18055e-15 -6.4605e-15 -0 0 -8.3 1 -27.6384 -29.4697 -6.18017 0 -4.65 2.27374e-13 -12.2804 -8.29926e-15 7.49418e-14 -2.27374e-13 -3.3 1.13687e-13 -6.9903 -0.218335 -0.116311 -0.5 -2.15 -0.8 -3.18055e-15 -6.4605e-15 -0 0 -7.75 -0.2 -46.8217 -18.6725 -15.0079 0 -3.8 5.68434e-14 -1.77348 -0.0054744 0.00844246 -2.27374e-13 -3.4 5.68434e-14 -82.6641 -0.0267334 0.0440521 -0.75 -1.75 -1.85 -3.18055e-15 -6.4605e-15 -0 2.27374e-13 -7.15 -1 -0.0989351 -2.46848 0.0117469 0 -3 0 -17.2024 0.0345385 -0.00685423 0 -2.35 1.7053e-13 10.2701 -0.0916443 0.0166016 -5 17 0 -0.852775 -1.79694 8.87327 -6.45 -1.13687e-13 1.13687e-13 -2.91366 0.53643 -2.49917 -6.45 0 0 -50.0174 -26.7448 12.1385 -1.13687e-13 -32.4 -2 100.262 -78.3745 95.0101 2.27374e-13 -25.65 2 -13.4707 15.7571 -1.28209 0.5 -1.5 2.65 0.404969 -4.11552 5.3123 -1.13687e-13 -3.8 3.7 0.435345 9.87775 -0.17697 0 -3 2.7 0.0326956 44.9865 -0.0188116 0 -1.9 1.6 -6.36111e-15 -6.36111e-15 -1.59028e-15 0 -8.3 1.9 1.47976 10.0149 -0.212902 -1.13687e-13 -4.5 1.13687e-13 22.5093 -0.106399 -0.0771548 2.27374e-13 -3.4 1.13687e-13 16.8128 -0.0850185 -0.039828 0.25 -2.2 0.4 -6.36111e-15 -6.36111e-15 -1.59028e-15 0 -8.3 1 14.5818 11.8018 -2.29848 0 -4.65 -2.27374e-13 85.6782 -0.0173786 0.00670697 1.13687e-13 -3.3 0 77.5555 0.0136899 0.0412375 0.5 -2.15 -0.8 -6.36111e-15 -6.36111e-15 -1.59028e-15 -2.27374e-13 -7.75 -0.2 37.813 11.1175 -6.04857 -3.41061e-13 -3.8 -1.13687e-13 49.3588 0.0126284 0.00118138 -1.13687e-13 -3.4 1.13687e-13 34.077 0.00724183 -0.00489885 0.75 -1.75 -1.85 -6.36111e-15 -6.36111e-15 -1.59028e-15 0 -7.15 -1 50.5976 4.05598 -5.05889 -3.41061e-13 -3 1.13687e-13 38.1176 -0.00111223 0.0101831 0 -2.35 -1.13687e-13 26.9546 0.00293657 0.00576117 8 0 1.13687e-13 9.61758 -31.7317 -35.3336 2.27374e-13 -45 -1 0.262023 22.5598 -1.78477 2.27374e-13 -41 -2 -11.7968 -10.3024 20.4905 0 -7.5 12.5 5.01974e-20 -0.00315936 7.95139e-15 -2.27374e-13 1.76942e-15 4 13.1641 -1.75451 79.6021 -8 2.84217e-14 0 -5.89902 -15.4629 -53.5035 -2.27374e-13 -45 -1 -0.0876312 16.7274 0.813871 2.27374e-13 -41 -2 7.30753 -6.58354 7.40354 0 -7.5 12.5 -7.76503e-19 -2.36057e-16 -0 0 -5.55112e-17 4 -5.00615 8.26987 53.4296 
-308.472 90.8247 1197.01 -10.2863 -12.9557 116.36 -3.41061e-13 8 1.13687e-13 -3.73132 22.2834 14.6012 1.13687e-13 8 1.13687e-13 -4.31644 8.56218 4.89879 -1.13687e-13 8 0 -2.06091 4.33621 2.35931 -1.13687e-13 8 1.13687e-13 -2.0556 4.3178 2.34884 1.13687e-13 17 1.13687e-13 -1.71811 2.62676 2.26983 0 10.8 0 -4.18215 6.0217 5.43462 5 17 0 -15.6145 -8.86341 16.7837 6.45 -1.13687e-13 -1.13687e-13 -0.277459 -1.72078 1.79773 6.45 0 -1.13687e-13 57.6833 23.6592 -13.8127 1.13687e-13 -32.4 -2 151.981 -46.3307 73.1926 5.68434e-14 -25.65 2 -45.5357 -7.91689 44.1309 -0.5 -1.5 2.65 2.91044 -14.4709 113.093 1.13687e-13 -3.8 3.7 -0.0784939 30.3544 -0.0286507 0 -3 2.7 -0.00393458 -0.243338 0.021733 0 -1.9 1.6 8.27607e-32 -4.77083e-15 9.93923e-16 0 -8.3 1.9 -38.1235 -31.2714 -10.01 0 -4.5 0 -9.69852e-32 -5.59082e-15 -9.93923e-16 0 -3.4 5.68434e-14 3.18055e-15 7.95139e-16 2.98177e-16 -0.25 -2.2 0.4 8.27607e-32 -4.77083e-15 9.93923e-16 -2.27374e-13 -8.3 1 -28.0838 -29.6249 -6.30056 0 -4.65 2.27374e-13 -12.2804 -1.08835e-14 9.76033e-14 -2.27374e-13 -3.3 1.13687e-13 -9.22133 -0.151968 -0.0946313 -0.5 -2.15 -0.8 8.27607e-32 -4.77083e-15 9.93923e-16 0 -7.75 -0.2 -46.6687 -18.8956 -15.4232 -2.27374e-13 -3.8 -5.68434e-14 -1.77348 -0.0054744 0.00844246 0 -3.4 -5.68434e-14 -81.8758 -0.0221558 0.0376587 -0.75 -1.75 -1.85 8.27607e-32 -4.77083e-15 9.93923e-16 2.27374e-13 -7.15 -1 -0.0890029 -2.43399 0.0110894 -2.27374e-13 -3 -5.68434e-14 -16.6638 4.70871e-15 -3.00165e-14 -2.27374e-13 -2.35 2.27374e-13 9.5221 -0.15097 0.026703 -5 17 0 -1.04072 -1.74086 8.90818 -6.45 1.13687e-13 2.27374e-13 -2.92007 0.529853 -2.51626 -6.45 0 0 -50.6786 -27.1446 12.0149 -2.27374e-13 -32.4 -2 99.7879 -78.5749 94.2145 2.27374e-13 -25.65 2 -12.5372 16.0016 -1.61766 0.5 -1.5 2.65 0.207847 -3.65527 4.94935 -1.13687e-13 -3.8 3.7 0.377001 9.83934 -0.150465 0 -3 2.7 0.0230673 45.3378 -0.0105802 0 -1.9 1.6 -1.05934e-30 -1.90833e-14 -3.18055e-15 0 -8.3 1.9 1.27096 8.96484 -0.190271 -1.13687e-13 -4.5 1.13687e-13 18.0122 -0.172423 -0.1729 1.13687e-13 -3.4 0 13.6053 -0.149789 -0.10443 0.25 -2.2 0.4 -1.05934e-30 -1.90833e-14 -3.18055e-15 0 -8.3 1 12.9666 10.5742 -1.89868 1.13687e-13 -4.65 -1.13687e-13 84.646 -0.0594859 0.0245686 2.27374e-13 -3.3 -1.13687e-13 75.4899 0.0140492 0.130197 0.5 -2.15 -0.8 -1.05934e-30 -1.90833e-14 -3.18055e-15 -1.13687e-13 -7.75 -0.2 34.2116 10.3255 -5.10669 -2.27374e-13 -3.8 -2.27374e-13 49.5421 0.0129759 0.000368585 -1.13687e-13 -3.4 0 34.2008 0.00734351 -0.0049908 0.75 -1.75 -1.85 -1.05934e-30 -1.90833e-14 -3.18055e-15 -1.13687e-13 -7.15 -1 46.0255 4.31037 -4.47403 0 -3 2.27374e-13 36.9608 -0.0131945 0.0348472 0 -2.35 -1.13687e-13 26.2628 0.00216168 0.0222887 8 -2.84217e-14 -1.13687e-13 9.57271 -31.768 -35.3276 2.27374e-13 -45 -1 0.260932 22.6298 -1.7751 4.54747e-13 -41 -2 -11.7802 -10.325 20.4874 -2.27374e-13 -7.5 12.5 -2.51173e-19 -0.0031545 9.54166e-15 0 1.77636e-15 4 13.1518 -1.75249 79.602 -8 2.84217e-14 0 -5.95014 -15.5023 -53.473 -4.54747e-13 -45 -1 -0.0824905 16.7697 0.794006 2.27374e-13 -41 -2 7.31828 -6.57718 7.41878 0 -7.5 12.5 -3.88251e-19 -2.36445e-16 6.36111e-15 -2.27374e-13 -5.55112e-17 4 -5.00448 8.26047 53.4271 
